<svg width="53" height="50" viewBox="0 0 53 50" fill="none" xmlns="http://www.w3.org/2000/svg"><path d="M32.8 3.8H0V36.6H32.8V3.8Z" fill="#FF8C00"/><path d="M50.6 41.3H13.5C12.7 41.3 12 40.6 12 39.8V11.4C12 10.6 12.7 9.9 13.5 9.9H50.6C51.4 9.9 52.1 10.6 52.1 11.4V39.8C52.1 40.6 51.4 41.3 50.6 41.3ZM13.8 39.6H50.3V11.7H13.8V39.6Z" fill="#2C2B2B"/><path d="M41.9008 50H22.2008C21.7008 50 21.3008 49.6 21.3008 49.1C21.3008 48.6 21.7008 48.2 22.2008 48.2H41.9008C42.4008 48.2 42.8008 48.6 42.8008 49.1C42.8008 49.6 42.4008 50 41.9008 50Z" fill="#2C2B2B"/><path d="M32.0992 49.8C31.5992 49.8 31.1992 49.4 31.1992 48.9V40.7C31.1992 40.2 31.5992 39.8 32.0992 39.8C32.5992 39.8 32.9992 40.2 32.9992 40.7V48.9C32.8992 49.4 32.4992 49.8 32.0992 49.8Z" fill="#2C2B2B"/><path d="M0 6.6H1.4V8H0V6.6Z" fill="#2C2B2B"/><path d="M2.80078 4.1C2.80078 1.8 3.50078 0 5.60078 0C7.80078 0 8.50078 1.8 8.50078 4.1C8.50078 6.4 7.80078 8.2 5.60078 8.2C3.50078 8.1 2.80078 6.3 2.80078 4.1ZM7.00078 4.1C7.00078 2.6 6.70078 1.4 5.60078 1.4C4.50078 1.4 4.20078 2.6 4.20078 4.1C4.20078 5.7 4.50078 6.9 5.60078 6.9C6.70078 6.8 7.00078 5.6 7.00078 4.1Z" fill="#2C2B2B"/><path d="M9.69922 7.3C9.69922 4.5 13.3992 4 13.3992 2.4C13.3992 1.7 12.8992 1.3 12.1992 1.3C11.5992 1.3 11.0992 1.7 10.7992 2.2L9.69922 1.6C10.0992 0.7 10.9992 0 12.2992 0C13.6992 0 14.8992 0.8 14.8992 2.3C14.8992 4.8 11.3992 5.3 11.2992 6.7H14.9992V8H9.79922C9.69922 7.8 9.69922 7.5 9.69922 7.3Z" fill="#2C2B2B"/></svg>