<svg width="53" height="50" viewBox="0 0 53 50" fill="none" xmlns="http://www.w3.org/2000/svg"><path d="M32.9 3.6H0V36.5H32.9V3.6Z" fill="#FF8C00"/><path d="M50.8008 41V39.3C50.6008 39.3 50.4008 39.5 50.4008 39.7V11.8H22.6008C22.8008 11.8 23.0008 11.6 23.0008 11.4H21.3008C21.3008 10.6 21.9008 10 22.7008 10H50.9008C51.7008 10 52.3008 10.6 52.3008 11.4V39.6C52.2008 40.3 51.6008 41 50.8008 41Z" fill="#2C2B2B"/><path d="M51.0977 41H49.9977C49.4977 41 49.0977 40.6 49.0977 40.1C49.0977 39.6 49.4977 39.2 49.9977 39.2H51.1977C51.6977 39.2 52.0977 39.6 52.0977 40.1C52.0977 40.6 51.5977 41 51.0977 41Z" fill="#2C2B2B"/><path d="M46.4992 41H44.1992C43.6992 41 43.2992 40.6 43.2992 40.1C43.2992 39.6 43.6992 39.2 44.1992 39.2H46.4992C46.9992 39.2 47.3992 39.6 47.3992 40.1C47.3992 40.6 46.9992 41 46.4992 41ZM40.6992 41H38.3992C37.8992 41 37.4992 40.6 37.4992 40.1C37.4992 39.6 37.8992 39.2 38.3992 39.2H40.6992C41.1992 39.2 41.5992 39.6 41.5992 40.1C41.5992 40.6 41.1992 41 40.6992 41ZM34.9992 41H32.6992C32.1992 41 31.7992 40.6 31.7992 40.1C31.7992 39.6 32.1992 39.2 32.6992 39.2H34.9992C35.4992 39.2 35.8992 39.6 35.8992 40.1C35.8992 40.6 35.4992 41 34.9992 41ZM29.1992 41H26.8992C26.3992 41 25.9992 40.6 25.9992 40.1C25.9992 39.6 26.3992 39.2 26.8992 39.2H29.1992C29.6992 39.2 30.0992 39.6 30.0992 40.1C30.0992 40.6 29.6992 41 29.1992 41ZM23.3992 41H22.5992C21.7992 41 21.1992 40.4 21.1992 39.6V38.9C21.1992 38.4 21.5992 38 22.0992 38C22.5992 38 22.9992 38.4 22.9992 38.9V39.2H23.3992C23.8992 39.2 24.2992 39.6 24.2992 40.1C24.2992 40.6 23.8992 41 23.3992 41ZM22.0992 36.3C21.5992 36.3 21.1992 35.9 21.1992 35.4V33.1C21.1992 32.6 21.5992 32.2 22.0992 32.2C22.5992 32.2 22.9992 32.6 22.9992 33.1V35.4C22.9992 35.9 22.5992 36.3 22.0992 36.3ZM22.0992 30.5C21.5992 30.5 21.1992 30.1 21.1992 29.6V27.3C21.1992 26.8 21.5992 26.4 22.0992 26.4C22.5992 26.4 22.9992 26.8 22.9992 27.3V29.6C22.9992 30.1 22.5992 30.5 22.0992 30.5ZM22.0992 24.8C21.5992 24.8 21.1992 24.4 21.1992 23.9V21.6C21.1992 21.1 21.5992 20.7 22.0992 20.7C22.5992 20.7 22.9992 21.1 22.9992 21.6V23.9C22.9992 24.4 22.5992 24.8 22.0992 24.8ZM22.0992 19C21.5992 19 21.1992 18.6 21.1992 18.1V15.8C21.1992 15.3 21.5992 14.9 22.0992 14.9C22.5992 14.9 22.9992 15.3 22.9992 15.8V18.1C22.9992 18.6 22.5992 19 22.0992 19Z" fill="#2C2B2B"/><path d="M22.0992 13.2C21.5992 13.2 21.1992 12.8 21.1992 12.3V11.1C21.1992 10.6 21.5992 10.2 22.0992 10.2C22.5992 10.2 22.9992 10.6 22.9992 11.1V12.3C22.9992 12.8 22.5992 13.2 22.0992 13.2Z" fill="#2C2B2B"/><path d="M39.6992 50H11.5992C10.7992 50 10.1992 49.4 10.1992 48.6V20.5C10.1992 19.7 10.7992 19.1 11.5992 19.1H39.7992C40.5992 19.1 41.1992 19.7 41.1992 20.5V48.7C41.0992 49.4 40.4992 50 39.6992 50ZM11.8992 48.3H39.2992V20.8H11.8992V48.3Z" fill="#2C2B2B"/><path d="M21.6865 10.5129L10.6602 19.4603L11.7313 20.7804L22.7576 11.833L21.6865 10.5129Z" fill="#2C2B2B"/><path d="M50.7554 10.2788L39.6758 19.3193L40.7505 20.6364L51.8302 11.5959L50.7554 10.2788Z" fill="#2C2B2B"/><path d="M50.6514 39.2315L39.6992 47.9521L40.8204 49.3602L51.7726 40.6396L50.6514 39.2315Z" fill="#2C2B2B"/><path d="M11.1975 49.8C10.8975 49.8 10.6975 49.7 10.4975 49.5C10.1975 49.1 10.2975 48.6 10.5975 48.3L11.4975 47.6C11.8975 47.3 12.3975 47.4 12.6975 47.7C12.9975 48.1 12.8975 48.6 12.5975 48.9L11.6975 49.6C11.4975 49.7 11.2975 49.8 11.1975 49.8Z" fill="#2C2B2B"/><path d="M15.4983 46.3C15.1983 46.3 14.9983 46.2 14.7983 46C14.4983 45.6 14.5983 45.1 14.8983 44.8L17.1983 43C17.5983 42.7 18.0983 42.8 18.3983 43.1C18.6983 43.5 18.5983 44 18.2983 44.3L15.9983 46.1C15.8983 46.2 15.6983 46.3 15.4983 46.3Z" fill="#2C2B2B"/><path d="M21.1975 41.7C20.8975 41.7 20.6975 41.6 20.4975 41.4C20.1975 41 20.2975 40.5 20.5975 40.2L21.4975 39.5C21.8975 39.2 22.3975 39.3 22.6975 39.6C22.9975 40 22.8975 40.5 22.5975 40.8L21.6975 41.5C21.5975 41.6 21.3975 41.7 21.1975 41.7Z" fill="#2C2B2B"/><path d="M0 6.6H1.4V8H0V6.6Z" fill="#2C2B2B"/><path d="M2.80078 4.1C2.80078 1.8 3.50078 0 5.60078 0C7.80078 0 8.50078 1.8 8.50078 4.1C8.50078 6.4 7.80078 8.2 5.60078 8.2C3.50078 8.2 2.80078 6.3 2.80078 4.1ZM7.00078 4.1C7.00078 2.6 6.70078 1.4 5.60078 1.4C4.50078 1.4 4.20078 2.6 4.20078 4.1C4.20078 5.7 4.50078 6.9 5.60078 6.9C6.70078 6.8 7.00078 5.6 7.00078 4.1Z" fill="#2C2B2B"/><path d="M10.3 6C10.7 6.4 11.4 6.8 12.1 6.8C12.9 6.8 13.5 6.3 13.5 5.6C13.5 4.8 12.7 4.4 11.8 4.4H11.3L11 3.7L12.4 2C12.7 1.6 13 1.4 13 1.4C13 1.4 12.8 1.4 12.3 1.4H9.9V0.0999985H14.7V0.999998L12.8 3.2C13.9 3.4 14.9 4.1 14.9 5.5C14.9 6.8 13.9 8.1 12.1 8.1C11.2 8.1 10.2 7.7 9.5 7L10.3 6Z" fill="#2C2B2B"/></svg>