<svg width="4" height="5" viewBox="0 0 4 5" fill="none" xmlns="http://www.w3.org/2000/svg"><path opacity=".4" d="M0.499899 4.98101C0.400843 4.98099 0.304024 4.95155 0.221726 4.89642C0.139428 4.84129 0.0753604 4.76296 0.03765 4.67136C-6.04503e-05 4.57976 -0.00971371 4.47903 0.00991485 4.38193C0.0295434 4.28484 0.0775691 4.19577 0.147899 4.12601L1.7959 2.49801L0.145899 0.853012C0.0546782 0.758841 0.00409486 0.632609 0.0050449 0.501504C0.00599493 0.370399 0.0584023 0.244913 0.150979 0.152074C0.243555 0.0592354 0.368893 0.00647327 0.499994 0.00515236C0.631096 0.00383145 0.757471 0.0540575 0.851899 0.145012L2.8579 2.14501C2.90525 2.19122 2.94288 2.24643 2.96857 2.30739C2.99427 2.36836 3.0075 2.43385 3.0075 2.50001C3.0075 2.56617 2.99427 2.63166 2.96857 2.69263C2.94288 2.7536 2.90525 2.80881 2.8579 2.85501L0.851899 4.83701C0.758298 4.92978 0.631684 4.98158 0.499899 4.98101Z" fill="#535455"/></svg>