<svg width="14" height="14" viewBox="0 0 14 14" fill="none" xmlns="http://www.w3.org/2000/svg"><mask id="path-1-inside-1" fill="#fff"><path fill-rule="evenodd" clip-rule="evenodd" d="M3 0C1.34315 0 0 1.34315 0 3V7.0909C0 8.74775 1.34315 10.0909 3 10.0909H6.571C7.13654 10.0913 8.71626 10.0972 10.0626 10.1818C11.8086 10.2915 13.4167 12.1212 14 13.0909V8.24239L13.9996 8.24216V3C13.9996 1.34315 12.6565 0 10.9996 0H3Z"/></mask><path d="M6.571 10.0909L6.57245 8.0909H6.571V10.0909ZM10.0626 10.1818L10.188 8.18571H10.188L10.0626 10.1818ZM14 13.0909L12.2862 14.1218L16 20.2956V13.0909H14ZM14 8.24239H16V7.06476L14.9702 6.49348L14 8.24239ZM13.9996 8.24216H11.9996V9.41979L13.0294 9.99107L13.9996 8.24216ZM2 3C2 2.44772 2.44772 2 3 2V-2C0.238574 -2 -2 0.23858 -2 3H2ZM2 7.0909V3H-2V7.0909H2ZM3 8.0909C2.44772 8.0909 2 7.64318 2 7.0909H-2C-2 9.85232 0.238576 12.0909 3 12.0909V8.0909ZM6.571 8.0909H3V12.0909H6.571V8.0909ZM6.56956 12.0909C7.1344 12.0913 8.65894 12.0975 9.9372 12.1778L10.188 8.18571C8.77357 8.09684 7.13868 8.09131 6.57245 8.0909L6.56956 12.0909ZM9.9372 12.1778C10.1856 12.1934 10.6194 12.3655 11.168 12.8343C11.6895 13.28 12.0999 13.8121 12.2862 14.1218L15.7138 12.0599C15.3168 11.3999 14.6314 10.5324 13.7666 9.79335C12.9288 9.07743 11.6856 8.27981 10.188 8.18571L9.9372 12.1778ZM16 13.0909V8.24239H12V13.0909H16ZM14.9702 6.49348L14.9698 6.49326L13.0294 9.99107L13.0298 9.99129L14.9702 6.49348ZM11.9996 3V8.24216H15.9996V3H11.9996ZM10.9996 2C11.5519 2 11.9996 2.44771 11.9996 3H15.9996C15.9996 0.238577 13.761 -2 10.9996 -2V2ZM3 2H10.9996V-2H3V2Z" fill="#545050" mask="url(#path-1-inside-1)"/></svg>