<svg width="14" height="14" viewBox="0 0 14 14" fill="none" xmlns="http://www.w3.org/2000/svg"><g clip-path="url(#clip0)" fill="#545050"><path d="M8.38053 13.687C8.2084 13.687 6.73585 13.6162 6.4476 11.4313L6.40148 11.0524C6.19146 9.26691 5.92298 8.18308 3.96616 8.18308C3.74773 8.18308 3.53825 8.09631 3.3838 7.94186C3.22935 7.78741 3.14258 7.57793 3.14258 7.3595C3.14258 7.14107 3.22935 6.93159 3.3838 6.77714C3.53825 6.62269 3.74773 6.53592 3.96616 6.53592C7.52895 6.53592 7.86003 9.34927 8.03628 10.8605L8.07993 11.2163C8.16311 11.8431 8.37147 12.0284 8.43736 12.044C8.65643 12.0407 8.83679 11.2715 8.83679 10.1704C8.83679 9.6194 8.76597 9.07254 8.62596 8.54463L8.26276 7.17255L9.63484 7.53822C10.0022 7.63622 10.4757 7.6947 10.8999 7.6947H10.9023C11.7374 7.6947 12.155 7.55963 12.2003 7.28291C12.2711 6.84806 12.4194 5.94377 12.3214 4.62358C12.2192 3.25726 11.9779 2.47404 11.8429 2.12896C11.7668 1.92621 11.7737 1.70168 11.862 1.50396C11.9503 1.30624 12.1129 1.15124 12.3146 1.07252C12.5163 0.993804 12.7409 0.997698 12.9398 1.08336C13.1387 1.16902 13.2958 1.32956 13.3772 1.53022C13.5831 2.05731 13.8516 3.0003 13.9636 4.50169C14.0432 5.51895 13.997 6.54216 13.826 7.5481C13.6926 8.36674 13.0807 9.34268 10.9204 9.34268H10.918C10.7598 9.34268 10.5984 9.33691 10.4395 9.3262C10.4691 9.60622 10.484 9.88789 10.484 10.1704C10.484 12.5044 9.78144 13.6879 8.39618 13.6879L8.38053 13.687Z"/><path d="M12.6097 2.65191C12.2803 2.65191 11.9681 2.45178 11.8413 2.12482C11.6939 1.7435 11.3818 1.62738 10.5779 1.64797L10.4017 1.65126C10.1833 1.65126 9.9738 1.56449 9.81934 1.41004C9.66489 1.25559 9.57812 1.04611 9.57812 0.827687C9.57812 0.60926 9.66489 0.39978 9.81934 0.245329C9.9738 0.090878 10.1833 0.00410901 10.4017 0.00410901L10.5359 0.00163806C11.1495 -0.00989203 12.7637 -0.0543661 13.3773 1.5302C13.4258 1.65499 13.4431 1.78972 13.4277 1.92271C13.4124 2.0557 13.3649 2.18295 13.2892 2.29343C13.2136 2.40391 13.1123 2.4943 12.9938 2.55677C12.8754 2.61923 12.7436 2.65189 12.6097 2.65191Z"/><path d="M4.31842 3.26875L3.50391 1.83738C4.54169 1.24736 5.65072 0.792621 6.80398 0.484237C7.9778 0.169148 9.18765 0.00829461 10.403 0.0057373L10.4047 1.65289C9.33276 1.65499 8.26572 1.79702 7.2306 2.07539C6.21283 2.34698 5.23411 2.74804 4.31842 3.26875Z"/><path d="M5.25278 9.08407H1.71798C1.26364 9.08451 0.827654 8.90477 0.505611 8.58428C0.183568 8.26378 0.00174392 7.82866 0 7.37432V2.2879C0 1.34408 0.770869 0.577332 1.71798 0.577332H5.25278L4.97359 1.61504C4.69141 2.66347 4.5488 3.74455 4.54944 4.83029V4.83193C4.54944 5.9207 4.69192 7.00289 4.97359 8.04636L5.25278 9.08407ZM1.71798 2.22366C1.67928 2.22366 1.64716 2.25249 1.64716 2.28708V7.3735C1.64716 7.40809 1.67928 7.43609 1.71798 7.43609H3.14607C2.82135 5.71379 2.82135 3.94597 3.14607 2.22366H1.71798Z"/></g><defs><clipPath id="clip0"><path fill="#fff" d="M0 0H14V13.688H0z"/></clipPath></defs></svg>