<svg width="16" height="17" viewBox="0 0 16 17" fill="none" xmlns="http://www.w3.org/2000/svg"><g clip-path="url(#clip0)"><path d="M13.6233 14.3392H2.34785V16.2277H13.6233V14.3392ZM13.4365 6.78677C13.1474 6.4952 12.6783 6.4952 12.3895 6.78677L8.71672 10.4896V0.844457C8.71672 0.431793 8.38472 0.0976562 7.97594 0.0976562C7.56683 0.0976562 7.23539 0.431907 7.23539 0.844571V10.4897L3.6121 6.83707C3.32288 6.54527 2.85405 6.54527 2.56483 6.83707C2.27527 7.12865 2.27527 7.6014 2.56483 7.89309L7.45225 12.8201C7.46919 12.8377 7.4877 12.8542 7.50655 12.87C7.51513 12.877 7.52405 12.8828 7.53297 12.89C7.54358 12.8974 7.55396 12.9062 7.56446 12.9135C7.57541 12.9206 7.58614 12.9264 7.59675 12.9333C7.60668 12.9394 7.61639 12.9452 7.62667 12.9507C7.63795 12.957 7.64913 12.962 7.66031 12.9674C7.67126 12.9725 7.68176 12.9778 7.69225 12.9824C7.70332 12.987 7.71438 12.9906 7.72556 12.9944C7.7373 12.9987 7.74892 13.0032 7.76078 13.0068C7.77218 13.0102 7.78302 13.0127 7.79431 13.0155C7.8065 13.0182 7.81846 13.0221 7.83088 13.0244C7.84386 13.0268 7.85696 13.0282 7.86994 13.0306C7.88089 13.0323 7.89162 13.0342 7.90257 13.0353C7.95111 13.0401 8.00022 13.0401 8.04876 13.0353C8.06005 13.0342 8.07032 13.0323 8.08138 13.0306C8.09425 13.0282 8.10769 13.0273 8.12022 13.0244C8.13252 13.022 8.14471 13.0182 8.15679 13.0155C8.16831 13.0127 8.17926 13.0102 8.19055 13.0068C8.2024 13.0032 8.21392 12.9987 8.22577 12.9944C8.23728 12.991 8.24778 12.9873 8.25907 12.9824C8.26991 12.9778 8.28063 12.9725 8.29102 12.9674C8.30231 12.9619 8.31348 12.9569 8.32455 12.9507C8.33482 12.9452 8.34453 12.9388 8.35435 12.9333C8.36541 12.9264 8.37614 12.9207 8.38675 12.9135C8.39759 12.9062 8.40808 12.8974 8.41847 12.89C8.42705 12.883 8.43608 12.8771 8.44477 12.87C8.47288 12.8468 8.49885 12.8202 8.52312 12.7937C8.5317 12.7861 8.5405 12.7788 8.54897 12.7706L13.4364 7.84324C13.7257 7.55098 13.7257 7.07823 13.4365 6.78677Z" fill="#000" fill-opacity=".7"/></g><defs><clipPath id="clip0"><path fill="#fff" transform="translate(0 .098)" d="M0 0H16V16.13H0z"/></clipPath></defs></svg>