<svg width="16" height="16" viewBox="0 0 16 16" fill="none" xmlns="http://www.w3.org/2000/svg"><path d="M15.1173 0H0.882667C0.395333 0 0 0.395333 0 0.882667V15.1173C0 15.6053 0.395333 16 0.882667 16H8.54533V9.804H6.45933V7.39H8.54533V5.60667C8.54533 3.54067 9.808 2.41667 11.6513 2.41667C12.5347 2.41667 13.294 2.48133 13.5153 2.51067V4.67067H12.2347C11.2347 4.67067 11.04 5.15133 11.04 5.85133V7.392H13.4293L13.1193 9.812H11.04V16H15.1167C15.6053 16 16 15.6053 16 15.1173V0.882667C16 0.395333 15.6053 0 15.1173 0Z" fill="#000"/></svg>