<svg width="23" height="18" viewBox="0 0 23 18" fill="none" xmlns="http://www.w3.org/2000/svg"><g clip-path="url(#clip0)" fill="#fff"><path d="M2.90039 18C2.30039 18 1.90039 17.6 1.90039 17V1C1.90039 0.4 2.30039 0 2.90039 0C3.50039 0 3.90039 0.4 3.90039 1V17C3.90039 17.6 3.50039 18 2.90039 18ZM11.3004 18C10.7004 18 10.3004 17.6 10.3004 17V1C10.3004 0.4 10.7004 0 11.3004 0C11.9004 0 12.3004 0.4 12.3004 1V17C12.3004 17.6 11.8004 18 11.3004 18ZM19.6004 18C19.0004 18 18.6004 17.6 18.6004 17V1C18.6004 0.4 19.0004 0 19.6004 0C20.2004 0 20.6004 0.4 20.6004 1V17C20.6004 17.6 20.2004 18 19.6004 18Z"/><path d="M4.9 5.5H1C0.4 5.5 0 5.1 0 4.5C0 3.9 0.4 3.5 1 3.5H4.9C5.5 3.5 5.9 3.9 5.9 4.5C5.9 5.1 5.4 5.5 4.9 5.5ZM13.2 14.3H9.4C8.8 14.3 8.4 13.9 8.4 13.3C8.4 12.7 8.8 12.3 9.4 12.3H13.3C13.9 12.3 14.3 12.7 14.3 13.3C14.3 13.9 13.8 14.3 13.2 14.3ZM21.6 8.1H17.7C17.1 8.1 16.7 7.7 16.7 7.1C16.7 6.5 17.1 6.1 17.7 6.1H21.6C22.2 6.1 22.6 6.5 22.6 7.1C22.6 7.7 22.1 8.1 21.6 8.1Z"/></g><defs><clipPath id="clip0"><path fill="#fff" d="M0 0H22.6V18H0z"/></clipPath></defs></svg>