<svg width="14" height="14" viewBox="0 0 14 14" fill="none" xmlns="http://www.w3.org/2000/svg"><g clip-path="url(#clip0)" fill="#545050"><path d="M12.6104 12.6823C12.4765 12.6824 12.3445 12.6497 12.226 12.5872C12.1075 12.5247 12.006 12.4342 11.9305 12.3236C11.8549 12.2129 11.8075 12.0855 11.7924 11.9524C11.7773 11.8193 11.7949 11.6845 11.8437 11.5597C11.9787 11.2138 12.2201 10.4306 12.3222 9.06429C12.4194 7.74492 12.2711 6.84063 12.2011 6.40578C12.1558 6.12824 11.7374 5.99317 10.9221 5.99317H10.9196C10.4866 5.99263 10.0552 6.0449 9.63484 6.14883L8.26359 6.51449L8.62596 5.14241C8.76597 4.61368 8.83679 4.06682 8.83679 3.51667C8.83679 2.41555 8.65561 1.64633 8.39618 1.64633C8.37065 1.65868 8.16311 1.84398 8.07993 2.4699L8.03628 2.82569C7.85921 4.33695 7.52895 7.1503 3.96616 7.1503C3.74773 7.1503 3.53825 7.06353 3.3838 6.90908C3.22935 6.75463 3.14258 6.54515 3.14258 6.32672C3.14258 6.10829 3.22935 5.89881 3.3838 5.74436C3.53825 5.58991 3.74773 5.50314 3.96616 5.50314C5.92298 5.50314 6.19146 4.41931 6.40065 2.63379L6.4476 2.25495C6.74985 -0.0362437 8.36653 -0.00412479 8.42912 -6.90192e-06H8.43077C9.78226 -6.90192e-06 10.484 1.18347 10.484 3.51667C10.484 3.79916 10.4683 4.08164 10.4395 4.36166C10.5927 4.35088 10.7463 4.34539 10.8999 4.34519H10.9023C13.0815 4.34519 13.6934 5.32113 13.8269 6.13977C13.9018 6.59767 14.0764 7.66997 13.9644 9.18371C13.8524 10.6867 13.5839 11.6297 13.378 12.156C13.3179 12.3108 13.2124 12.4438 13.0755 12.5377C12.9385 12.6316 12.7765 12.6819 12.6104 12.6823Z"/><path d="M10.7781 13.6879C10.6867 13.6879 10.6051 13.6854 10.5359 13.6837L10.4017 13.6813C10.1833 13.6813 9.9738 13.5945 9.81934 13.4401C9.66489 13.2856 9.57812 13.0761 9.57812 12.8577C9.57812 12.6393 9.66489 12.4298 9.81934 12.2753C9.9738 12.1209 10.1833 12.0341 10.4017 12.0341L10.5779 12.0374C11.3818 12.0572 11.6939 11.9419 11.8413 11.5606C11.8804 11.4597 11.939 11.3675 12.0137 11.2893C12.0884 11.2111 12.1778 11.1484 12.2768 11.1047C12.3757 11.061 12.4823 11.0373 12.5905 11.0348C12.6986 11.0323 12.8062 11.0512 12.907 11.0903C13.0079 11.1294 13.1 11.188 13.1783 11.2627C13.2565 11.3374 13.3192 11.4268 13.3629 11.5258C13.4065 11.6247 13.4303 11.7313 13.4328 11.8394C13.4352 11.9476 13.4164 12.0552 13.3773 12.156C12.8329 13.561 11.4979 13.6879 10.7781 13.6879Z"/><path d="M10.4022 13.6813C9.18681 13.6791 7.9769 13.5182 6.80316 13.2028C5.65011 12.8946 4.54133 12.4398 3.50391 11.8497L4.31842 10.4183C6.1736 11.4727 8.26996 12.0293 10.4038 12.0341L10.4022 13.6813Z"/><path d="M5.25278 13.1097H1.71798C1.26349 13.1101 0.827387 12.9303 0.50532 12.6096C0.183254 12.2889 0.00152638 11.8536 0 11.3991V6.31271C0 5.36972 0.770869 4.60297 1.71798 4.60297H5.25278L4.97359 5.64067C4.69208 6.68894 4.54975 7.76969 4.55027 8.8551C4.55027 9.94634 4.69275 11.0293 4.97359 12.072L5.25278 13.1097ZM1.71798 6.25012C1.67928 6.25012 1.64716 6.27812 1.64716 6.31271V11.3991C1.64716 11.4345 1.67928 11.4625 1.71798 11.4625H3.14524C2.98343 10.6034 2.90209 9.73101 2.90229 8.85674V8.8551C2.90229 7.97881 2.98382 7.10582 3.14524 6.25012H1.71798Z"/></g><defs><clipPath id="clip0"><path fill="#fff" d="M0 0H14V13.688H0z"/></clipPath></defs></svg>