<svg width="137" height="28" viewBox="0 0 137 28" fill="none" xmlns="http://www.w3.org/2000/svg"><path d="M37.9732 0.321777H34.2188V27.6781H37.9732V0.321777Z" fill="#fff"/><path d="M22.3113 0.321777L13.0861 19.6321L11.1553 23.6015L13.1934 27.8927L15.2315 23.7088L26.3875 0.321777H22.3113Z" fill="#fff"/><path d="M4.07624 0.321777H0L9.43972 19.954L11.4778 15.6628L4.07624 0.321777Z" fill="#fff"/><path d="M127.436 7.93848L125.398 12.2297L128.616 18.881H122.287L120.571 22.4213H130.225L132.692 27.678H136.876L127.436 7.93848Z" fill="#fff"/><path d="M125.72 4.39847L123.682 0L121.644 4.29119L110.488 27.6782H114.564L123.789 8.36782L125.72 4.39847Z" fill="#fff"/><path d="M49.666 27.678H53.3132V12.7662L49.666 6.54395V27.678Z" fill="#fff"/><path d="M66.2926 0.321777V21.3486L61.8946 13.9463L53.8494 0.321777H49.5586L57.7111 14.1609L59.7492 17.3792L61.3582 20.2758L65.8635 27.6781H70.047V0.321777H66.2926Z" fill="#fff"/><path d="M94.0753 0.321777C92.2517 0.321777 90.3208 0.643616 88.7118 1.39457C86.9955 2.14553 85.4937 3.11105 84.0992 4.39841C82.7047 5.79304 81.7393 7.18768 81.0956 8.90415C80.3448 10.6206 80.0229 12.3371 80.0229 14.1608C80.0229 15.9846 80.452 17.8084 81.0956 19.4176C81.7393 21.134 82.812 22.5287 84.0992 23.9233C85.4937 25.2107 86.9955 26.1762 88.7118 26.9271C90.4281 27.6781 92.2517 27.9999 94.0753 27.9999H102.657V19.203H99.0097V24.3524H94.1825C92.788 24.3524 91.3935 24.1379 90.1063 23.6015C88.9263 23.0651 87.7464 22.4214 86.7809 21.4559C85.8155 20.5976 85.0646 19.4176 84.5283 18.2375C83.9919 17.0574 83.7774 15.7701 83.6701 14.3754C83.6701 12.9808 83.9919 11.6934 84.5283 10.4061C85.0646 9.22598 85.8155 8.15319 86.7809 7.18767C87.7464 6.32943 88.819 5.57847 90.1063 5.04208C91.3935 4.50568 92.6808 4.29112 94.1825 4.29112H102.764V0.321777H94.3512H94.0753Z" fill="#fff"/><path d="M102.657 12.1226H91.1792V15.7701H102.657V12.1226Z" fill="#fff"/></svg>