<svg width="136" height="28" viewBox="0 0 136 28" fill="none" xmlns="http://www.w3.org/2000/svg"><path d="M37.6644 0.321198H33.9404V27.6782H37.6644V0.321198Z" fill="#3C3D3E"/><path d="M22.1339 0.321198L12.9836 19.632L11.0684 23.6014L13.09 27.8927L15.1115 23.7087L26.1771 0.321198H22.1339Z" fill="#3C3D3E"/><path d="M4.0432 0.321198H0L9.36319 19.9539L11.3848 15.6626L4.0432 0.321198Z" fill="#3C3D3E"/><path d="M126.4 7.93884L124.379 12.2301L127.571 18.8817H121.293L119.591 22.422H129.167L131.614 27.6788H135.764L126.4 7.93884Z" fill="#3C3D3E"/><path d="M124.702 4.39858L122.68 0L120.658 4.29129L109.593 27.6788H113.636L122.786 8.36802L124.702 4.39858Z" fill="#3C3D3E"/><path d="M49.2588 27.6784H52.8764V12.7662L49.2588 6.54382V27.6784Z" fill="#3C3D3E"/><path d="M65.7546 0.321198V21.3485L61.3922 13.946L53.4122 0.321198H49.1562L57.2426 14.1606L59.2642 17.3791L60.8602 20.2757L65.329 27.6782H69.4786V0.321198H65.7546Z" fill="#3C3D3E"/><path d="M93.3124 0.321198C91.5036 0.321198 89.5884 0.643044 87.9924 1.39402C86.29 2.14499 84.8004 3.11054 83.4172 4.39792C82.034 5.79259 81.0764 7.18726 80.438 8.90377C79.6932 10.6203 79.374 12.3368 79.374 14.1606C79.374 15.9844 79.7996 17.8082 80.438 19.4174C81.0764 21.1339 82.1404 22.5286 83.4172 23.9233C84.8004 25.2107 86.29 26.1762 87.9924 26.9272C89.6948 27.6782 91.5036 28 93.3124 28H101.824V19.2029H98.2068V24.3524H93.4188C92.0356 24.3524 90.6524 24.1378 89.3756 23.6014C88.2052 23.065 87.0348 22.4213 86.0772 21.4558C85.1196 20.5975 84.3748 19.4174 83.8428 18.2373C83.3108 17.0572 83.098 15.7698 82.9916 14.3752C82.9916 12.9805 83.3108 11.6931 83.8428 10.4057C84.3748 9.22561 85.1196 8.15279 86.0772 7.18725C87.0348 6.32899 88.0988 5.57802 89.3756 5.04161C90.6524 4.5052 91.9292 4.29064 93.4188 4.29064H101.931V0.321198H93.5861H93.3124Z" fill="#3C3D3E"/><path d="M101.823 12.1227H90.4385V15.7703H101.823V12.1227Z" fill="#3C3D3E"/></svg>