<svg width="14" height="14" viewBox="0 0 14 14" fill="none" xmlns="http://www.w3.org/2000/svg"><path fill-rule="evenodd" clip-rule="evenodd" d="M11.0396 6.52342C11.0396 9.01765 9.01765 11.0396 6.52342 11.0396C4.02918 11.0396 2.0072 9.01765 2.0072 6.52342C2.0072 4.02918 4.02918 2.0072 6.52342 2.0072C9.01765 2.0072 11.0396 4.02918 11.0396 6.52342ZM10.3716 11.7915C9.29283 12.5808 7.96255 13.0468 6.52342 13.0468C2.92063 13.0468 0 10.1262 0 6.52342C0 2.92063 2.92063 0 6.52342 0C10.1262 0 13.0468 2.92063 13.0468 6.52342C13.0468 7.96283 12.5806 9.29335 11.791 10.3722L13.9994 12.5807L12.5801 14L10.3716 11.7915Z" fill="#fff"/></svg>