<svg width="30" height="30" viewBox="0 0 30 30" fill="none" xmlns="http://www.w3.org/2000/svg"><path d="M15 30C23.2843 30 30 23.2843 30 15C30 6.71573 23.2843 0 15 0C6.71573 0 0 6.71573 0 15C0 23.2843 6.71573 30 15 30Z" fill="#1EAFE5"/><path d="M14.9983 8.12622C11.202 8.12622 8.125 10.9759 8.125 14.4909C8.125 16.4942 9.12467 18.2806 10.6867 19.4479V21.8742L13.027 20.5896C13.652 20.7629 14.313 20.8559 14.9987 20.8559C18.795 20.8559 21.873 18.0062 21.873 14.4906C21.8727 10.9759 18.7947 8.12622 14.9983 8.12622ZM15.682 16.6979L13.9317 14.8306L10.5153 16.6979L14.2727 12.7089L16.066 14.5762L19.439 12.7089L15.682 16.6979Z" fill="#fff"/></svg>