<svg width="22" height="22" viewBox="0 0 22 22" fill="none" xmlns="http://www.w3.org/2000/svg"><path d="M9.87626 4.68034C10.5207 5.39475 10.3164 6.20411 9.74655 6.97206C9.61144 7.15413 9.45571 7.33353 9.26762 7.53121C9.17734 7.62609 9.10694 7.69745 8.95969 7.84484C8.62528 8.17959 8.34416 8.46086 8.11633 8.68867C8.00584 8.79915 8.76017 10.3065 10.2241 11.7719C11.6873 13.2365 13.1945 13.9913 13.3056 13.8803L14.1483 13.037C14.6124 12.5724 14.8582 12.3483 15.196 12.1267C15.8981 11.6661 16.6639 11.5409 17.3098 12.1185C19.4188 13.627 20.6122 14.5527 21.1968 15.1602C22.3372 16.3451 22.1877 18.169 21.2033 19.2095C20.8619 19.5703 20.4291 20.0034 19.9179 20.4962C16.8255 23.5903 10.2991 21.7074 5.29736 16.7007C0.294472 11.6929 -1.58747 5.16589 1.49843 2.07833C2.05244 1.51562 2.2351 1.33305 2.77466 0.801405C3.77921 -0.18842 5.68727 -0.343407 6.84717 0.802384C7.45728 1.40507 8.42995 2.65657 9.87626 4.68034ZM15.7031 14.5923L14.8602 15.4357C13.4273 16.8694 10.9872 15.6473 8.66916 13.327C6.34955 11.0051 5.12888 8.5659 6.5622 7.1327C6.78973 6.90519 7.07058 6.62419 7.40474 6.2897C7.53956 6.15475 7.60123 6.09223 7.67526 6.01443C7.77611 5.90843 7.85899 5.81534 7.92535 5.73296C6.64357 3.94746 5.77224 2.83179 5.30252 2.36777C5.05993 2.12814 4.51674 2.17226 4.31732 2.36875C3.78547 2.89281 3.61065 3.06754 3.05888 3.62794C1.07433 5.61358 2.59357 10.8826 6.85232 15.1456C11.1097 19.4072 16.378 20.9271 18.3776 18.9266C18.8809 18.4412 19.291 18.0309 19.6067 17.6972C19.8348 17.4561 19.8755 16.9587 19.6131 16.686C19.1761 16.232 18.1062 15.3977 16.2588 14.0711C16.1241 14.1794 15.9585 14.3367 15.7031 14.5923ZM12.8246 0.0774511C17.5798 0.653834 21.3502 4.42431 21.9266 9.17947L19.7539 9.5416C19.3343 5.71138 16.2927 2.66973 12.4625 2.25021L12.8246 0.0774511ZM12.1 4.42485C15.0054 4.68471 17.3194 6.99866 17.5792 9.90404L15.3995 10.2673C15.307 8.28655 13.7175 6.69708 11.7367 6.60458L12.1 4.42485Z" fill="#FF8C00"/></svg>