<svg width="8" height="8" viewBox="0 0 8 8" fill="none" xmlns="http://www.w3.org/2000/svg"><path d="M4.54715 4.00525L7.63677 0.932501C7.7849 0.785876 7.7849 0.548501 7.63677 0.402251C7.48902 0.255626 7.24902 0.255626 7.10127 0.402251L4.01427 3.47238L0.898774 0.356501C0.751024 0.208376 0.511024 0.208376 0.363274 0.356501C0.215524 0.505001 0.215524 0.745376 0.363274 0.893501L3.47652 4.00713L0.352023 7.11438C0.204273 7.261 0.204273 7.49838 0.352023 7.64463C0.499773 7.79125 0.739773 7.79125 0.887523 7.64463L4.0094 4.54L7.11252 7.6435C7.26027 7.79163 7.50027 7.79163 7.64802 7.6435C7.79577 7.495 7.79577 7.25463 7.64802 7.1065L4.54715 4.00525Z" fill="#fff"/></svg>