<svg width="16" height="15" viewBox="0 0 16 15" fill="none" xmlns="http://www.w3.org/2000/svg"><path d="M3.3 6L0 11.3C0 13.1 1.5 14.6 3.3 14.6C5.1 14.6 6.6 13.2 6.6 11.4L3.3 6ZM1.2 11.3L3.3 7.9L5.4 11.3H1.2Z" fill="#3C3D3E"/><path d="M16.0004 11.4L12.7004 6L9.40039 11.3C9.40039 13.1 10.9004 14.6 12.7004 14.6C14.5004 14.6 16.0004 13.2 16.0004 11.4ZM10.6004 11.3L12.7004 7.9L14.8004 11.3H10.6004Z" fill="#3C3D3E"/><path d="M10.7 4H13.3V2H10.7C10.3 0.8 9.2 0 7.9 0C6.6 0 5.5 0.8 5 2H2.5V4H5C5.4 5.2 6.5 6 7.8 6C9.1 6 10.3 5.2 10.7 4ZM7.9 4C7.3 4 6.9 3.5 6.9 3C6.9 2.5 7.4 2 7.9 2C8.5 2 8.9 2.5 8.9 3C8.9 3.5 8.4 4 7.9 4Z" fill="#3C3D3E"/></svg>