<svg width="16" height="14" viewBox="0 0 16 14" fill="none" xmlns="http://www.w3.org/2000/svg"><path d="M3.6 3.59999L0 9.69999V10.2C0 12.3 1.7 14 3.8 14C5.9 14 7.6 12.3 7.6 10.2V9.69999L3.9 3.59999C3.9 3.49999 3.7 3.49999 3.6 3.59999ZM3.8 13C2.4 13 1.3 12 1.1 10.7H6.6C6.3 12 5.1 13 3.8 13ZM6.4 9.69999H1.2L3.7 5.49999C3.8 5.39999 3.9 5.39999 4 5.49999L6.4 9.69999Z" fill="#3C3D3E"/><path d="M12.3999 3.59999C12.2999 3.49999 12.1999 3.49999 12.0999 3.59999L8.3999 9.69999V10.2C8.3999 12.3 10.0999 14 12.1999 14C14.2999 14 15.9999 12.3 15.9999 10.2V9.69999L12.3999 3.59999ZM12.0999 5.59999C12.1999 5.49999 12.2999 5.49999 12.3999 5.59999L14.8999 9.79999H9.5999L12.0999 5.59999ZM12.1999 13C10.7999 13 9.6999 12 9.4999 10.7H14.9999C14.6999 12 13.5999 13 12.1999 13Z" fill="#3C3D3E"/><path d="M9.8002 3H12.9002V1H9.8002C9.4002 0.4 8.8002 0 8.0002 0C7.2002 0 6.7002 0.4 6.3002 1H3.2002V3H6.3002C6.6002 3.6 7.3002 4 8.0002 4C8.7002 4 9.4002 3.6 9.8002 3Z" fill="#3C3D3E"/></svg>