<svg width="52" height="50" viewBox="0 0 52 50" fill="none" xmlns="http://www.w3.org/2000/svg"><path d="M32.7 3.8H0V36.5H32.7V3.8Z" fill="#FF8C00"/><path d="M31.8 49.9H16.9C16.1 49.9 15.5 49.3 15.5 48.5V11.4C15.5 10.6 16.1 10 16.9 10H45.3C46.1 10 46.7 10.6 46.7 11.4V32.8C46.7 33.3 46.3 33.7 45.8 33.7C45.3 33.7 44.9 33.3 44.9 32.8V11.7H17.2V48.2H31.8C32.3 48.2 32.7 48.6 32.7 49.1C32.7 49.5 32.3 49.9 31.8 49.9Z" fill="#2C2B2B"/><path d="M43 49.9H42.4C41.9 49.9 41.5 49.5 41.5 49C41.5 48.5 41.9 48.1 42.4 48.1H43C43.5 48.1 43.9 48.5 43.9 49C43.9 49.5 43.5 49.9 43 49.9Z" fill="#2C2B2B"/><path d="M42.7013 50C42.3013 50 42.0013 49.9 41.7013 49.6L37.5013 45.9C37.1013 45.6 37.1013 45 37.4013 44.7C37.7013 44.3 38.3013 44.3 38.6013 44.6L42.6013 48.1L50.0013 38.3C50.3013 37.9 50.8013 37.8 51.2013 38.1C51.6013 38.4 51.7013 38.9 51.4013 39.3L43.6013 49.4C43.5013 49.9 43.1013 50 42.7013 50Z" fill="#2C2B2B"/><path d="M40.9984 19.5H21.2984C20.7984 19.5 20.3984 19.1 20.3984 18.6C20.3984 18.1 20.7984 17.7 21.2984 17.7H40.9984C41.4984 17.7 41.8984 18.1 41.8984 18.6C41.8984 19.1 41.3984 19.5 40.9984 19.5Z" fill="#2C2B2B"/><path d="M40.9984 25.6H21.2984C20.7984 25.6 20.3984 25.2 20.3984 24.7C20.3984 24.2 20.7984 23.8 21.2984 23.8H40.9984C41.4984 23.8 41.8984 24.2 41.8984 24.7C41.8984 25.2 41.3984 25.6 40.9984 25.6Z" fill="#2C2B2B"/><path d="M40.9984 31.7H21.2984C20.7984 31.7 20.3984 31.3 20.3984 30.8C20.3984 30.3 20.7984 29.9 21.2984 29.9H40.9984C41.4984 29.9 41.8984 30.3 41.8984 30.8C41.8984 31.3 41.3984 31.7 40.9984 31.7Z" fill="#2C2B2B"/><path d="M40.9984 37.7H21.2984C20.7984 37.7 20.3984 37.3 20.3984 36.8C20.3984 36.3 20.7984 35.9 21.2984 35.9H40.9984C41.4984 35.9 41.8984 36.3 41.8984 36.8C41.7984 37.4 41.3984 37.7 40.9984 37.7Z" fill="#2C2B2B"/><path d="M29.9984 43.8H21.2984C20.7984 43.8 20.3984 43.4 20.3984 42.9C20.3984 42.4 20.7984 42 21.2984 42H29.9984C30.4984 42 30.8984 42.4 30.8984 42.9C30.7984 43.4 30.3984 43.8 29.9984 43.8Z" fill="#2C2B2B"/><path d="M0 6.6H1.4V8H0V6.6Z" fill="#2C2B2B"/><path d="M2.80078 4.1C2.80078 1.8 3.50078 0 5.60078 0C7.80078 0 8.40078 1.8 8.40078 4.1C8.40078 6.4 7.70078 8.2 5.60078 8.2C3.50078 8.1 2.80078 6.3 2.80078 4.1ZM7.00078 4.1C7.00078 2.6 6.70078 1.4 5.60078 1.4C4.50078 1.4 4.20078 2.6 4.20078 4.1C4.20078 5.7 4.50078 6.9 5.60078 6.9C6.70078 6.8 7.00078 5.6 7.00078 4.1Z" fill="#2C2B2B"/><path d="M9.70156 6.80001H11.4016V2.40001C11.4016 2.10001 11.4016 1.90001 11.4016 1.90001C11.4016 1.90001 11.3016 2.10001 11.0016 2.30001L10.4016 2.90001L9.60156 2.00001L11.6016 0.100006H12.9016V6.70001H14.6016V8.00001H9.70156V6.80001Z" fill="#2C2B2B"/></svg>