<svg width="16" height="16" viewBox="0 0 16 16" fill="none" xmlns="http://www.w3.org/2000/svg"><path d="M6.01895 13.8913C5.54295 13.8913 5.62362 13.7107 5.45962 13.2587L4.05762 8.64532L14.8423 2.24665" fill="#000"/><path d="M6.01855 13.8913C6.38655 13.8913 6.54855 13.7233 6.75522 13.5227L8.71589 11.618L6.26855 10.142" fill="#000"/><path d="M6.26842 10.142L12.1951 14.5207C12.8718 14.894 13.3604 14.7013 13.5284 13.8927L15.9418 2.52399C16.1898 1.53266 15.5658 1.08466 14.9191 1.37733L0.749753 6.84199C-0.216914 7.22999 -0.212247 7.76999 0.573753 8.01066L4.21042 9.14399L12.6264 3.83533C13.0231 3.59533 13.3884 3.72399 13.0891 3.98999" fill="#000"/></svg>