<svg width="30" height="31" viewBox="0 0 30 31" fill="none" xmlns="http://www.w3.org/2000/svg"><path d="M14.8217 0C18.9075 0.0250151 22.3929 1.36749 25.303 4.11082C28.2048 6.85415 29.7891 10.2562 29.9808 14.2503C30.181 18.5195 28.8135 22.2551 25.8533 25.3487C22.9433 28.3922 19.3494 29.9598 15.1302 30.0015C11.2028 30.0432 7.75907 28.7257 4.87399 26.0658C1.47193 22.9222 -0.162392 18.9865 0.012714 14.3587C0.154466 10.4813 1.64704 7.14599 4.39036 4.411C7.28378 1.51758 10.8193 0.0750454 14.8217 0Z" fill="#0087CB"/><path d="M10.3832 17.0271C9.56607 16.7769 8.74057 16.5184 7.92341 16.2683C7.52317 16.1432 7.12292 16.0181 6.72268 15.8931C6.57259 15.843 6.43084 15.793 6.30576 15.7013C6.07229 15.5262 6.05561 15.3094 6.25573 15.0926C6.38915 14.9425 6.55591 14.8424 6.73936 14.7674C7.22298 14.5756 7.70661 14.3838 8.19024 14.192C11.5256 12.9079 14.8609 11.6155 18.2046 10.3314C19.2636 9.92279 20.3142 9.51421 21.3732 9.10563C21.515 9.04726 21.6651 9.01391 21.8235 9.03892C22.1403 9.08895 22.3822 9.34744 22.4155 9.68098C22.4322 9.86442 22.4238 10.0479 22.3905 10.2313C21.9819 12.1491 21.5733 14.0753 21.1648 15.9931C20.8312 17.5774 20.4893 19.1617 20.1558 20.7543C20.0808 21.1129 20.0057 21.4714 19.9307 21.83C19.8973 22.0051 19.8473 22.1719 19.7639 22.3303C19.5971 22.6388 19.3303 22.7556 18.9884 22.6888C18.78 22.6472 18.5965 22.5554 18.4298 22.4304C17.2791 21.5798 16.1284 20.721 14.9693 19.8705C14.9193 19.8288 14.8609 19.7954 14.8109 19.7621C14.6108 19.7037 14.469 19.5536 14.3106 19.4369C13.7603 19.0366 13.2099 18.6197 12.6596 18.2195C12.6179 18.1861 12.5762 18.1528 12.5429 18.1111C12.4928 18.0277 12.5429 17.9777 12.5929 17.9276C13.3434 17.2606 14.0855 16.5768 14.8359 15.9097C15.3779 15.4178 15.9283 14.9258 16.4702 14.4339C17.0122 13.9419 17.5542 13.4583 18.0962 12.9746C18.5215 12.5911 18.9467 12.2158 19.3637 11.8323C19.397 11.7989 19.4304 11.7656 19.4637 11.7322C19.4887 11.6989 19.5221 11.6655 19.5054 11.6238C19.4887 11.5738 19.4387 11.5738 19.397 11.5738C19.2469 11.5571 19.1219 11.6155 18.9968 11.6905C18.5382 11.9657 18.0962 12.2575 17.646 12.541C16.2785 13.3999 14.9026 14.2671 13.5351 15.1259C12.5929 15.718 11.6507 16.31 10.7084 16.9104C10.6 16.9687 10.525 17.0771 10.3832 17.0271Z" fill="#FCFDFE"/><path d="M10.3867 17.0271C10.6119 16.9354 10.8036 16.7853 11.0121 16.6602C11.6125 16.285 12.2128 15.9098 12.8132 15.5262C13.2384 15.2594 13.6554 14.9842 14.0806 14.7174C14.781 14.2754 15.4898 13.8335 16.1986 13.3916C16.6905 13.0831 17.1825 12.7662 17.6828 12.4493C18.1164 12.1742 18.55 11.899 18.9836 11.6238C19.1253 11.5405 19.2671 11.4904 19.4422 11.5071C19.4922 11.5154 19.5422 11.5154 19.5589 11.5655C19.5839 11.6155 19.5673 11.6655 19.5256 11.7156C19.4255 11.8156 19.3338 11.924 19.2171 12.0157C19.0086 12.1825 18.8251 12.3743 18.625 12.5494C18.2998 12.8246 17.9996 13.1247 17.6745 13.3999C17.541 13.5166 17.416 13.6417 17.2826 13.7585C17.0908 13.9169 16.9073 14.1087 16.7239 14.2754C16.4404 14.5339 16.1485 14.7841 15.865 15.0342C15.74 15.151 15.6065 15.2677 15.4898 15.3844C15.1813 15.6763 14.8561 15.9515 14.5476 16.2433C14.1723 16.5852 13.7888 16.9187 13.4219 17.2689C13.1551 17.5191 12.8716 17.7525 12.5964 17.9944C12.5547 18.0277 12.5547 18.0611 12.5797 18.1028C12.5213 19.045 12.4546 19.9872 12.3963 20.9295C12.3796 21.1796 12.3462 21.4214 12.3546 21.6716C12.3546 21.7466 12.3546 21.8133 12.2962 21.8717C12.2462 21.8884 12.1878 21.8884 12.1378 21.8884C11.9877 21.88 11.8793 21.805 11.8376 21.6632C11.7959 21.5131 11.7459 21.3714 11.7042 21.2213C11.2956 19.8788 10.887 18.528 10.4784 17.1855C10.4367 17.1272 10.4117 17.0771 10.3867 17.0271Z" fill="#CCD9E9"/><path d="M12.2679 21.8631C12.2429 21.5379 12.3013 21.2127 12.3096 20.8959C12.3263 20.5457 12.3596 20.1955 12.3763 19.8453C12.4013 19.4867 12.4263 19.1282 12.4513 18.7779C12.4597 18.5945 12.4764 18.4111 12.4764 18.236C12.4764 18.1776 12.493 18.1359 12.5514 18.1025C13.2268 18.6028 13.9022 19.0948 14.5693 19.5951C14.6443 19.6535 14.7277 19.6952 14.7861 19.7702C14.1607 20.3789 13.527 20.9876 12.9016 21.5963C12.7349 21.7631 12.5347 21.8965 12.2679 21.8631Z" fill="#B1C8DB"/></svg>