<svg width="20" height="20" viewBox="0 0 20 20" fill="none" xmlns="http://www.w3.org/2000/svg"><path d="M7.52198 17.3642C6.92698 17.3642 7.02781 17.1384 6.82281 16.5734L5.07031 10.8067L18.5511 2.80835" fill="#C4C4C4"/><path d="M7.52344 17.3642C7.98344 17.3642 8.18594 17.1542 8.44427 16.9033L10.8951 14.5225L7.83594 12.6775" fill="#C4C4C4"/><path d="M7.83577 12.6776L15.2441 18.1509C16.0899 18.6176 16.7008 18.3767 16.9108 17.3659L19.9274 3.15506C20.2374 1.91589 19.4574 1.35589 18.6491 1.72173L0.937435 8.55256C-0.270898 9.03756 -0.265065 9.71256 0.717435 10.0134L5.26327 11.4301L15.7833 4.79423C16.2791 4.49423 16.7358 4.65506 16.3616 4.98756" fill="#C4C4C4"/></svg>