<svg width="22" height="22" viewBox="0 0 22 22" fill="none" xmlns="http://www.w3.org/2000/svg"><path d="M11 22C4.92487 22 0 17.0751 0 11C0 4.92487 4.92487 0 11 0C17.0751 0 22 4.92487 22 11C22 17.0751 17.0751 22 11 22ZM11 20C15.9706 20 20 15.9706 20 11C20 6.02944 15.9706 2 11 2C6.02944 2 2 6.02944 2 11C2 15.9706 6.02944 20 11 20ZM11.0003 16.9983C10.4479 16.9983 10 16.5506 10 15.9983C10 15.4461 10.4479 14.9983 11.0003 14.9983C11.5528 14.9983 12.0007 15.4461 12.0007 15.9983C12.0007 16.5506 11.5528 16.9983 11.0003 16.9983ZM10.003 4.99835H12.0036V12.9983H10.003V4.99835Z" fill="#FF8C00"/></svg>